<?xml version="1.0" standalone="no"?><!DOCTYPE svg PUBLIC "-//W3C//DTD SVG 1.1//EN" "http://www.w3.org/Graphics/SVG/1.1/DTD/svg11.dtd"><svg t="1681090812843" class="icon" viewBox="0 0 1024 1024" version="1.1" xmlns="http://www.w3.org/2000/svg" p-id="1583" xmlns:xlink="http://www.w3.org/1999/xlink" width="200" height="200"><path d="M247.92064 908.84608c-6.36928 0-12.72832-3.18464-19.09248-6.36416C127.01184 816.56832 66.56 692.49024 66.56 558.85824c0-245.00224 200.448-445.44512 445.44-445.44512s445.44 200.448 445.44 445.44512c0 133.632-57.27232 257.71008-162.26816 343.61856-12.71296 12.7232-34.99008 9.53856-44.53888-3.17952-12.7232-12.72832-9.53856-35.00032 3.17952-44.54912 89.088-73.18016 136.81664-181.3504 136.81664-292.7104 0-210.00192-171.81696-381.80864-381.7984-381.80864-206.81216-3.17952-378.624 168.63232-378.624 378.62912 0 114.53952 50.90816 222.70976 139.99616 295.88992 12.7232 12.72832 15.90272 31.8208 3.17952 44.54912-6.3744 6.36416-15.91808 9.5488-25.46176 9.5488z" fill="#333333" p-id="1584"></path><path d="M712.448 358.41024c-12.7232-12.7232-31.8208-12.7232-44.53888 0l-139.12576 139.12064a63.488 63.488 0 0 0-16.78336-2.30912c-35.14368 0-63.63136 28.48768-63.63136 63.63648 0 5.82144 0.84992 11.42272 2.30912 16.77824l-24.58112 24.58112c-12.72832 12.7232-12.72832 31.8208 0 44.53888 6.36416 6.36928 12.7232 9.54368 22.272 9.54368 9.54368 0 15.90784-3.1744 22.272-9.54368l24.58112-24.58112c5.35552 1.4592 10.96192 2.30912 16.77824 2.30912 35.1488 0 63.63136-28.48768 63.63136-63.63136 0-5.82144-0.8448-11.42272-2.30912-16.77824l139.13088-139.12576c12.72832-12.7232 12.72832-31.81056-0.00512-44.53888z" fill="#333333" p-id="1585"></path></svg>