<?xml version="1.0" standalone="no"?><!DOCTYPE svg PUBLIC "-//W3C//DTD SVG 1.1//EN" "http://www.w3.org/Graphics/SVG/1.1/DTD/svg11.dtd"><svg t="1681534848441" class="icon" viewBox="0 0 1024 1024" version="1.1" xmlns="http://www.w3.org/2000/svg" p-id="1171" xmlns:xlink="http://www.w3.org/1999/xlink" width="200" height="200"><path d="M594.907 547.532l-99.603-255.858-108.593 204.487-60.646-62.36-102.6 63.93 28.968 16.695 65.783-40.954 79.34 81.765 91.898-172.807 101.6 261.423 86.618-182.368 35.39 75.059 38.67-6.421-73.774-156.968-92.04 174.662m-0.286-0.285zM940.236 747.88c-17.551-26.257-39.527-45.806-66.069-58.65 6.992 11.56 10.56 23.974 10.56 37.388 0 20.548-7.563 38.1-22.832 52.655s-33.534 21.833-54.796 21.833c-21.404 0-39.67-7.278-54.796-21.833-15.268-14.555-22.831-32.107-22.831-52.655 0-13.414 3.424-25.829 10.56-37.387-26.543 12.985-48.518 32.535-66.07 58.649 15.411 22.689 34.676 40.811 57.793 54.225s48.374 20.12 75.344 20.12c27.113 0 52.228-6.707 75.345-20.12 23.117-13.414 42.381-31.536 57.792-54.225m-124.86-63.93c0-2.14-0.856-4.137-2.426-5.707s-3.568-2.283-5.85-2.283c-14.556 0-26.97 4.994-37.245 14.84-10.417 9.847-15.554 21.833-15.554 35.675 0 2.14 0.856 4.138 2.426 5.708s3.567 2.283 5.85 2.283 4.281-0.713 5.851-2.283c1.57-1.57 2.426-3.425 2.426-5.708 0-9.56 3.425-17.695 10.56-24.401 6.992-6.85 15.554-10.132 25.543-10.132 2.283 0 4.28-0.713 5.85-2.283 1.713-1.57 2.569-3.425 2.569-5.708m147.121 63.929c0 3.852-1.141 7.563-3.425 11.415-16.267 25.543-37.957 45.95-65.212 61.36-27.398 15.412-56.223 22.975-86.618 22.975s-59.22-7.706-86.618-23.117-49.23-35.817-65.213-61.218c-2.283-3.852-3.424-7.705-3.424-11.415 0-3.853 1.141-7.563 3.424-11.416 16.268-25.4 37.958-45.806 65.213-61.218 27.398-15.411 56.223-23.117 86.618-23.117s59.22 7.706 86.618 23.117c27.398 15.412 49.23 35.818 65.212 61.218 2.284 3.71 3.425 7.705 3.425 11.416m0 0z m18.979-3.568c2.283 30.11-39.242 65.927-62.644 81.338h47.946c41.097 0 47.09-14.983 47.09-34.818v-46.377c-0.142-0.143-14.27-0.143-32.392-0.143m0 0z" fill="#333333" p-id="1172"></path><path d="M166.243 718.912v-488.17h675.104V630.44c21.404 4.567 40.098 12.986 47.09 16.839V215.616c0-19.835-14.698-35.96-33.106-35.96H152.116c-18.265 0-33.106 15.983-33.106 35.96v530.266H10.56v43.808c0 19.835 14.84 35.96 33.106 35.96H689.23L166.243 718.912z m255.572 51.086v-23.26h135.42v23.26h-135.42m267.558 55.652c-32.25-23.973-88.472-71.206-46.09-106.025-20.692-0.142-477.04-0.713-477.04-0.713l523.13 106.738z" fill="#333333" p-id="1173"></path></svg>