<?xml version="1.0" standalone="no"?><!DOCTYPE svg PUBLIC "-//W3C//DTD SVG 1.1//EN" "http://www.w3.org/Graphics/SVG/1.1/DTD/svg11.dtd"><svg t="1681092699327" class="icon" viewBox="0 0 1024 1024" version="1.1" xmlns="http://www.w3.org/2000/svg" p-id="3635" xmlns:xlink="http://www.w3.org/1999/xlink" width="200" height="200"><path d="M160.768 702.464q33.792 0 62.976 12.8t50.688 34.816 34.304 51.2 12.8 61.952q0 33.792-12.8 62.976t-34.304 50.688-50.688 34.304-62.976 12.8q-32.768 0-61.952-12.8t-51.2-34.304-34.816-50.688-12.8-62.976q0-32.768 12.8-61.952t34.816-51.2 51.2-34.816 61.952-12.8zM66.56 377.856q119.808 0 225.792 45.568t184.32 124.416 123.904 184.832 45.568 225.792l-89.088 0q-44.032 0-83.968-1.024 0-83.968-31.744-158.208t-87.04-129.536-129.536-87.04-158.208-31.744l0-173.056zM67.584 68.608q122.88 0 236.544 31.744t212.48 89.6 179.712 139.264 138.752 180.224 89.6 211.968 31.744 236.032l-59.392 0-36.864 0q-16.384 0-30.208-0.512t-32.256-0.512q0-100.352-26.112-194.048t-73.728-174.592-114.176-147.456-147.456-113.664-174.08-73.216-193.536-26.112l0-32.768q0-24.576-0.512-50.688t-0.512-47.616l0-27.648z" p-id="3636"></path></svg>