<?xml version="1.0" standalone="no"?><!DOCTYPE svg PUBLIC "-//W3C//DTD SVG 1.1//EN" "http://www.w3.org/Graphics/SVG/1.1/DTD/svg11.dtd"><svg t="1681535262744" class="icon" viewBox="0 0 1024 1024" version="1.1" xmlns="http://www.w3.org/2000/svg" p-id="1447" xmlns:xlink="http://www.w3.org/1999/xlink" width="200" height="200"><path d="M515.171 239.821L182.153 543.206c-6.79 6.282-15.906 10.135-25.922 10.135s-19.132-3.854-25.946-10.159c-6.771-5.632-11.067-14.092-11.067-23.554 0-9.463 4.295-17.922 11.043-23.539l383.083-348.94 383.033 348.898c6.797 5.655 11.093 14.114 11.093 23.578s-4.296 17.923-11.043 23.539c-6.839 6.322-15.954 10.176-25.971 10.176-10.015 0-19.132-3.854-25.946-10.159L515.169 239.819z m-1.827 335.452L180.266 878.658c-6.785 6.265-15.889 10.107-25.89 10.107s-19.105-3.843-25.916-10.132c-6.792-5.632-11.103-14.105-11.103-23.586 0-9.481 4.311-17.953 11.078-23.568l384.91-348.94 383.033 348.898c6.818 5.654 11.13 14.128 11.13 23.607s-4.31 17.953-11.078 23.568c-6.84 6.322-15.955 10.177-25.972 10.177-10.015 0-19.133-3.854-25.946-10.159L513.346 575.268z" fill="#333333" p-id="1448"></path></svg>